<?xml version="1.0" encoding="UTF-8"?>
<svg width="18px" height="18px" viewBox="0 0 18 18" version="1.1" xmlns="http://www.w3.org/2000/svg" xmlns:xlink="http://www.w3.org/1999/xlink">
    <!-- Generator: Sketch 52.4 (67378) - http://www.bohemiancoding.com/sketch -->
    <title>file 2</title>
    <desc>Created with Sketch.</desc>
    <g id="Faye" stroke="none" stroke-width="1" fill="none" fill-rule="evenodd">
        <g id="file-2" transform="translate(1.000000, 1.000000)" fill="rgba(89,89,89,1)">
            <g id="file">
                <path d="M9.33333333,6.4 L2.66666667,6.4 C2.5192,6.4 2.4,6.5792 2.4,6.8 C2.4,7.0208 2.5192,7.2 2.66666667,7.2 L9.33333333,7.2 C9.4808,7.2 9.6,7.0208 9.6,6.8 C9.6,6.5792 9.4808,6.4 9.33333333,6.4 Z" id="Path"></path>
                <path d="M2.66666667,4 L5.33333333,4 C5.4808,4 5.6,3.8208 5.6,3.6 C5.6,3.3792 5.4808,3.2 5.33333333,3.2 L2.66666667,3.2 C2.5192,3.2 2.4,3.3792 2.4,3.6 C2.4,3.8208 2.5192,4 2.66666667,4 Z" id="Path"></path>
                <path d="M9.6,9.2 C9.6,8.9792 9.4808,8.8 9.33333333,8.8 L2.66666667,8.8 C2.5192,8.8 2.4,8.9792 2.4,9.2 C2.4,9.4208 2.5192,9.6 2.66666667,9.6 L9.33333333,9.6 C9.4808,9.6 9.6,9.4208 9.6,9.2 Z" id="Path"></path>
                <path d="M2.65,12 C2.51175,12 2.4,12.1792 2.4,12.4 C2.4,12.6208 2.51175,12.8 2.65,12.8 L6.15,12.8 C6.28825,12.8 6.4,12.6208 6.4,12.4 C6.4,12.1792 6.28825,12 6.15,12 L2.65,12 Z" id="Path"></path>
                <path d="M0.544680851,0.533333333 L8.44255319,0.533333333 L8.44255319,4.26666667 L12.2553191,4.26666667 L12.2553191,8.26666667 L12.8,8.26666667 L12.8,3.8896 L8.82764255,0 L0,0 L0,16 L10.0765957,16 L10.0765957,15.4666667 L0.544680851,15.4666667 L0.544680851,0.533333333 Z M8.98723404,0.9104 L11.8702298,3.73333333 L8.98723404,3.73333333 L8.98723404,0.9104 Z" id="Shape" stroke="#000000" stroke-width="0.5" fill-rule="nonzero"></path>
                <path d="M15.9290747,15.5836958 L14.4018698,14.0455872 C14.8485197,13.5728725 15.1232631,12.9474308 15.1232631,12.2594203 C15.1235189,10.7929949 13.8846155,9.6 12.3617594,9.6 C10.8389034,9.6 9.6,10.7929949 9.6,12.2594203 C9.6,13.7258458 10.8389034,14.9188407 12.3617594,14.9188407 C12.9864553,14.9188407 13.5612676,14.7158616 14.0242895,14.3778915 L15.5594246,15.9238828 C15.609564,15.9746276 15.6768429,16 15.7443776,16 C15.808075,16 15.8715167,15.9773373 15.9211445,15.9317655 C16.0229581,15.8379123 16.0267953,15.6817367 15.9290747,15.5836958 Z M10.1116264,12.2594203 C10.1116264,11.0647011 11.1210654,10.0926677 12.3617594,10.0926677 C13.6024535,10.0926677 14.6118925,11.0647011 14.6118925,12.2594203 C14.6118925,13.4541396 13.6024535,14.426173 12.3617594,14.426173 C11.1210654,14.426173 10.1116264,13.4541396 10.1116264,12.2594203 Z" id="Shape" stroke="#000000" stroke-width="0.5" fill-rule="nonzero"></path>
            </g>
        </g>
    </g>
</svg>