<?xml version="1.0" encoding="UTF-8"?>
<svg width="14px" height="15px" viewBox="0 0 14 15" version="1.1" xmlns="http://www.w3.org/2000/svg" xmlns:xlink="http://www.w3.org/1999/xlink">
    <!-- Generator: Sketch 52.4 (67378) - http://www.bohemiancoding.com/sketch -->
    <title>Group 122</title>
    <desc>Created with Sketch.</desc>
    <g id="Faye" stroke="none" stroke-width="1" fill="none" fill-rule="evenodd">
        <g id="Group-122" transform="translate(-1.000000, -1.000000)">
            <rect id="Rectangle-43-Copy-9" x="0.421052632" y="3" width="14.3157895" height="14.3157895"></rect>
            <g id="solution" transform="translate(0.105263, 0.842105)" fill="#000000" fill-rule="nonzero">
                <path d="M14.8847832,14.4602942 C14.6878433,13.373167 13.9704194,12.5031388 13.0341735,12.1081166 C13.5906068,11.7212561 13.9579153,11.0617975 13.9579153,10.3125612 C13.9579153,9.12423001 13.0326105,8.15789474 11.8947356,8.15789474 C10.7568608,8.15789474 9.83155592,9.12423001 9.83155592,10.3125612 C9.83155592,11.0601652 10.1988644,11.7212561 10.7552977,12.1081166 C9.8190518,12.5031388 9.10162795,13.3747994 8.90468807,14.4602942 C8.84685652,14.7785972 9.04692243,15.0871063 9.35327336,15.1475022 C9.65806127,15.2078982 9.95347109,14.9989608 10.0113026,14.6790255 C10.1832343,13.7355428 10.9756828,13.0515994 11.8962986,13.0515994 C12.8169144,13.0515994 13.610926,13.7355428 13.7812946,14.6790255 C13.8328741,14.9614174 14.0688894,15.1572962 14.3330389,15.1572962 C14.3674252,15.1572962 14.4033746,15.1540315 14.4377609,15.1475022 C14.7425488,15.085474 14.9426147,14.7785972 14.8847832,14.4602942 Z M11.8947356,9.33316737 C12.4120936,9.33316737 12.8325446,9.77226228 12.8325446,10.3125612 C12.8325446,10.8528602 12.4120936,11.2919551 11.8947356,11.2919551 C11.3773777,11.2919551 10.9569267,10.8528602 10.9569267,10.3125612 C10.9569267,9.77226228 11.3773777,9.33316737 11.8947356,9.33316737 Z" id="Shape"></path>
                <path d="M13.770991,0.157894737 L2.01848266,0.157894737 C1.3988617,0.157894737 0.894736842,0.698631344 0.894736842,1.36325188 L0.894736842,13.9525376 C0.894736842,14.6171581 1.3988617,15.1578947 2.01848266,15.1578947 L6.34178255,15.1578947 C6.65237341,15.1578947 6.90365546,14.8883635 6.90365546,14.5552162 C6.90365546,14.2220688 6.65237341,13.9525376 6.34178255,13.9525376 L2.01848266,13.9525376 L2.01848266,1.36325188 L13.770991,1.36325188 L13.770991,7.05521617 C13.770991,7.38836349 14.0222731,7.65789474 14.3328639,7.65789474 C14.6434548,7.65789474 14.8947368,7.38836349 14.8947368,7.05521617 L14.8947368,1.36325188 C14.8947368,0.698631344 14.390612,0.157894737 13.770991,0.157894737 Z" id="Shape"></path>
                <path d="M3.45723684,3.42105263 L8.33223684,3.42105263 C8.64317434,3.42105263 8.89473684,3.13859649 8.89473684,2.78947368 C8.89473684,2.44035088 8.64317434,2.15789474 8.33223684,2.15789474 L3.45723684,2.15789474 C3.14629934,2.15789474 2.89473684,2.44035088 2.89473684,2.78947368 C2.89473684,3.13859649 3.14629934,3.42105263 3.45723684,3.42105263 Z M6.33223684,5.52631579 L3.45723684,5.52631579 C3.14629934,5.52631579 2.89473684,5.80877193 2.89473684,6.15789474 C2.89473684,6.50701754 3.14629934,6.78947368 3.45723684,6.78947368 L6.33223684,6.78947368 C6.64317434,6.78947368 6.89473684,6.50701754 6.89473684,6.15789474 C6.89473684,5.80877193 6.64317434,5.52631579 6.33223684,5.52631579 Z M6.33223684,8.89473684 L3.45723684,8.89473684 C3.14629934,8.89473684 2.89473684,9.17719298 2.89473684,9.52631579 C2.89473684,9.8754386 3.14629934,10.1578947 3.45723684,10.1578947 L6.33223684,10.1578947 C6.64317434,10.1578947 6.89473684,9.8754386 6.89473684,9.52631579 C6.89473684,9.17719298 6.64317434,8.89473684 6.33223684,8.89473684 Z" id="Shape"></path>
            </g>
        </g>
    </g>
</svg>