<?xml version="1.0" encoding="UTF-8"?>
<svg width="16px" height="16px" viewBox="0 0 16 16" version="1.1" xmlns="http://www.w3.org/2000/svg" xmlns:xlink="http://www.w3.org/1999/xlink">
    <!-- Generator: Sketch 52.4 (67378) - http://www.bohemiancoding.com/sketch -->
    <title>Group 242</title>
    <desc>Created with Sketch.</desc>
    <g id="Faye" stroke="none" stroke-width="1" fill="none" fill-rule="evenodd">
        <g id="Group-242" fill="rgba(89,89,89,1)">
            <path d="M3.04645198e-13,7.65099097 C3.04645198e-13,7.95067108 0.24188315,8.19356969 0.540310414,8.19356969 L10.831339,8.19356969 L8.82402298,10.2061582 C8.61355323,10.4175116 8.61355323,10.7613551 8.82402298,10.9727084 C8.92768719,11.0768078 9.06590613,11.1304348 9.20412507,11.1304348 C9.34234402,11.1304348 9.48056296,11.0768078 9.58422717,10.9727084 L12.5088144,8.03584332 C12.7192841,7.82448998 12.7192841,7.48064648 12.5088144,7.26929314 L9.58422717,4.33242805 C9.37375741,4.12107471 9.0313514,4.12107471 8.82088164,4.33242805 C8.61041189,4.54378139 8.61041189,4.88762489 8.82088164,5.09897823 L10.8250563,7.11156677 L0.540310414,7.11156677 C0.24188315,7.11156677 3.04645198e-13,7.35131085 3.04645198e-13,7.65099097 Z" id="Path"></path>
            <path d="M16,12.6384631 L16,3.36153689 C16,1.50745964 14.5547604,0 12.7803449,0 L3.88632182,0 C2.10877121,0 0.666666667,1.50745964 0.666666667,3.36153689 L0.666666667,5.26793378 C0.666666667,5.57858165 0.908062428,5.82709994 1.20275336,5.82709994 C1.5005793,5.82709994 1.74197506,5.57531167 1.74197506,5.26793378 L1.74197506,3.36153689 C1.74197506,2.12875536 2.70442309,1.12160229 3.88632182,1.12160229 L12.7803449,1.12160229 C13.9622436,1.12160229 14.9246916,2.12548539 14.9246916,3.36153689 L14.9246916,12.6384631 C14.9246916,13.8712446 13.9622436,14.8783977 12.7803449,14.8783977 L3.88632182,14.8783977 C2.70442309,14.8783977 1.74197506,13.8745146 1.74197506,12.6384631 L1.74197506,10.7549561 C1.74197506,10.4443082 1.5005793,10.1925199 1.20275336,10.1925199 C0.904927418,10.1925199 0.666666667,10.4443082 0.666666667,10.7549561 L0.666666667,12.6384631 C0.666666667,14.4925404 2.11190622,16 3.88632182,16 L12.7803449,16 C14.5578955,16 16,14.4925404 16,12.6384631 Z" id="Path"></path>
        </g>
    </g>
</svg>